<svg data-v-5f19e91b="" xmlns="http://www.w3.org/2000/svg" width="669" height="90" viewBox="0 0 669 90"><!----> <!----> <!----> <g data-v-5f19e91b="" id="2754d3b0-cb1b-4f07-6166-2427da34a537" fill="black" transform="matrix(4.376367907125053,0,0,4.376367907125053,106.00395935518901,1.4770233041916754)"><path d="M0.98 14.08L3.47 14.08L3.47 10.28L7.53 10.28L7.53 14.08L10.02 14.08L10.02 4.28L7.53 4.28L7.53 8.32L3.47 8.32L3.47 4.28L0.98 4.28ZM11.34 10.33C11.34 12.63 12.88 14.17 15.34 14.17C16.73 14.17 17.86 13.68 18.63 12.84L17.36 11.59C16.86 12.10 16.21 12.36 15.55 12.36C14.66 12.36 14.01 11.86 13.78 10.96L19.08 10.96C19.25 8.20 17.93 6.45 15.27 6.45C12.94 6.45 11.34 7.99 11.34 10.33ZM13.73 9.66C13.89 8.75 14.46 8.13 15.30 8.13C16.17 8.13 16.76 8.74 16.76 9.66ZM20.47 14.08L22.89 14.08L22.89 3.70L20.47 3.70ZM24.84 4.37C24.84 5.12 25.37 5.66 26.11 5.66C26.85 5.66 27.38 5.12 27.38 4.37C27.38 3.63 26.85 3.09 26.11 3.09C25.37 3.09 24.84 3.63 24.84 4.37ZM24.89 14.08L27.30 14.08L27.30 6.54L24.89 6.54ZM28.62 10.30C28.62 12.63 30.27 14.17 32.75 14.17C35.21 14.17 36.86 12.63 36.86 10.30C36.86 7.98 35.21 6.45 32.75 6.45C30.27 6.45 28.62 7.98 28.62 10.30ZM31.05 10.33C31.05 9.17 31.74 8.37 32.75 8.37C33.74 8.37 34.43 9.17 34.43 10.33C34.43 11.51 33.74 12.29 32.75 12.29C31.74 12.29 31.05 11.51 31.05 10.33ZM37.42 13.12C38.33 13.82 39.55 14.18 40.81 14.18C42.63 14.18 43.99 13.33 43.99 11.77C44.00 9.14 40.03 9.65 40.03 8.61C40.03 8.26 40.33 8.09 40.77 8.09C41.40 8.09 42.24 8.36 43.15 8.85L43.97 7.28C43.05 6.73 41.96 6.43 40.87 6.43C39.12 6.43 37.80 7.27 37.80 8.82C37.79 11.47 41.69 10.89 41.69 12.00C41.69 12.35 41.34 12.52 40.87 12.52C40.03 12.52 39.05 12.18 38.19 11.58ZM48.61 14.08L50.83 14.08L50.83 7.71L53.19 13.10L54.81 13.10L57.16 7.71L57.18 14.08L59.37 14.08L59.37 4.27L56.66 4.27L54.00 10.11L51.34 4.27L48.61 4.27ZM60.75 11.83C60.75 13.22 61.73 14.20 63.34 14.20C64.36 14.20 65.16 13.86 65.65 13.22L65.65 14.08L68.01 14.08L68.01 9.16C68.00 7.45 66.79 6.43 64.72 6.43C63.46 6.43 62.40 6.73 61.22 7.28L61.91 8.88C62.71 8.47 63.53 8.25 64.16 8.25C65.14 8.25 65.63 8.69 65.63 9.44L65.63 9.55L63.64 9.55C61.77 9.56 60.75 10.40 60.75 11.83ZM63.01 11.66C63.01 11.10 63.38 10.85 64.11 10.85L65.63 10.85L65.63 11.52C65.48 12.14 64.83 12.56 64.08 12.56C63.41 12.56 63.01 12.21 63.01 11.66ZM69.73 14.08L72.16 14.08L72.16 10.21C72.28 9.14 73.21 8.48 74.61 8.61L74.61 6.43C73.53 6.44 72.67 6.93 72.16 7.81L72.16 6.54L69.73 6.54ZM74.68 6.54L77.52 14.08L80.00 14.08L82.84 6.54L80.43 6.54L78.79 11.87L77.17 6.54ZM83.08 10.33C83.08 12.63 84.62 14.17 87.08 14.17C88.47 14.17 89.60 13.68 90.37 12.84L89.10 11.59C88.59 12.10 87.95 12.36 87.29 12.36C86.39 12.36 85.75 11.86 85.51 10.96L90.82 10.96C90.99 8.20 89.67 6.45 87.01 6.45C84.67 6.45 83.08 7.99 83.08 10.33ZM85.47 9.66C85.62 8.75 86.20 8.13 87.04 8.13C87.91 8.13 88.49 8.74 88.49 9.66ZM92.20 14.08L94.63 14.08L94.63 3.70L92.20 3.70ZM98.84 14.08L101.40 14.08L102.12 12.28L106.40 12.28L107.10 14.08L109.76 14.08L105.63 4.28L103.07 4.28ZM102.84 10.39L104.27 6.76L105.67 10.39ZM110.73 16.80L113.15 16.80L113.15 13.08C113.68 13.78 114.48 14.17 115.46 14.17C117.57 14.17 118.94 12.64 118.94 10.35C118.94 8.01 117.53 6.45 115.40 6.45C114.45 6.45 113.68 6.85 113.15 7.53L113.15 6.54L110.73 6.54ZM113.15 10.28C113.15 9.13 113.83 8.32 114.81 8.32C115.82 8.32 116.51 9.13 116.51 10.28C116.51 11.44 115.82 12.25 114.81 12.25C113.83 12.25 113.15 11.45 113.15 10.28ZM120.32 16.80L122.74 16.80L122.74 13.08C123.27 13.78 124.07 14.17 125.05 14.17C127.16 14.17 128.53 12.64 128.53 10.35C128.53 8.01 127.12 6.45 124.99 6.45C124.04 6.45 123.27 6.85 122.74 7.53L122.74 6.54L120.32 6.54ZM122.74 10.28C122.74 9.13 123.42 8.32 124.40 8.32C125.41 8.32 126.10 9.13 126.10 10.28C126.10 11.44 125.41 12.25 124.40 12.25C123.42 12.25 122.74 11.45 122.74 10.28Z"></path></g> <!----> <g data-v-5f19e91b="" id="2c483a20-197d-8201-6576-6e6a5c3c8a9d" transform="matrix(0.9271077443040916,0,0,0.9271077443040916,-0.07351994757632951,0.06780156815693061)" stroke="none" fill="black"><path d="M28.628 21.086l4.41 13.719s5.879 8.818 6.859 9.799l1.345.96a69.62 69.62 0 0 1 1.301-5.911c.869-2.535 3.229-5.577 5.677-6.317 1.572-.323 3.039-.099 4.252.6.637.322 2.019 2.029 2.122 2.34l.49.489 1.959.98 2.45.979c.49 0 .49.49 0 .49l-4.409.49-.98.489c-.489.49-.489 1.47 0 2.45l1.96 4.409 3.43-2.449c.979-.98 6.859-9.799 6.859-9.799l4.409-13.719 5.39-18.617c.489-1.96 1.471-1.96 2.45-.49l5.88 9.799 2.449 6.859c.49.979 1.47 1.47 2.449 1.47l2.94-.49h1.47c.979.49.979 1.47.979 2.45L90.36 32.844c0 .979.49 1.96 1.47 2.449l5.39.98c.979.489 1.47.979.979 1.96L87.911 54.892c-.489.98 0 1.47.98 1.96l3.43.49c.979.489 1.47.979.489 1.96l-9.799 7.349c-1.47 1.47-1.47 2.939.49 3.43l.98.49c1.47.489 1.959 1.47.489 2.449l-2.939 1.47c-3.92 1.47-7.84 1.96-7.84 1.96l-7.839.979-6.859-.979 4.409 6.369c1.96 1.96 1.96 5.39-.489 6.859l-7.84 6.859c-2.939 1.959-7.348 1.959-10.288 0l-7.839-6.859c-2.45-1.47-2.939-4.409-.98-6.859 1.96-2.449 5.478-6.369 5.478-6.369l-8.907.979-7.839-.979-7.839-1.96-2.939-1.47c-1.47-.979-.98-1.96.49-2.449l.98-.49c1.959-.49 1.959-1.96.49-3.43l-9.799-7.349c-.98-.98-.49-1.471.49-1.96l3.429-.49c.98-.49 1.47-.979.98-1.96L1.192 38.234c-.49-.98 0-1.471.98-1.96l5.389-.98c.98-.489 1.47-1.47 1.47-2.449L4.622 22.066c0-.98.49-1.96 1.47-2.45h.98l2.939.49c.98 0 1.96-.49 2.45-1.47l2.45-6.859 5.879-9.799c.98-1.47 1.959-1.47 2.45.49l5.388 18.618z"></path></g></svg>